<svg xmlns:dc="http://purl.org/dc/elements/1.1/" xmlns:cc="http://creativecommons.org/ns#" xmlns:rdf="http://www.w3.org/1999/02/22-rdf-syntax-ns#" xmlns:svg="http://www.w3.org/2000/svg" xmlns="http://www.w3.org/2000/svg" xmlns:sodipodi="http://sodipodi.sourceforge.net/DTD/sodipodi-0.dtd" xmlns:inkscape="http://www.inkscape.org/namespaces/inkscape" id="svg2" xml:space="preserve" width="623.56" height="221.94667" viewBox="0 0 623.56 221.94667" sodipodi:docname="Logo_vektor_grau_orange.eps"><metadata></metadata><defs id="defs6"></defs><g id="g10" inkscape:groupmode="layer" inkscape:label="ink_ext_XXXXXX" transform="matrix(1.3333333,0,0,-1.3333333,0,221.94667)"><g id="g12" transform="scale(0.1)"><path d="M 0,1.64063 C 0.0703125,0.929688 0.175781,0.25 1.17188,0.46875 793.805,0.449219 1579.18,0.5 2370.59,0.46875 c 80.97,0 156.25,0.57031 222.7,12.89065 66.2,12.289 125.25,32.7422 175.82,60.3594 99.47,54.3512 182.32,135.0432 219.18,252.0112 18.78,59.59 20.69,143.27 10.55,212.149 -10.19,69.172 -30.57,125.543 -61.54,174.641 -62.36,98.91 -164.66,150.507 -271.93,199.261 -52.96,24.078 -107.01,49.199 -161.16,74.43 -51.56,24.029 -108.48,52.949 -143.58,92.599 -36.29,40.99 -65.5,99.17 -62.12,173.47 3.35,73.78 29.32,125.61 72.08,163.51 42.53,37.7 97.61,57.45 174.64,60.95 38.41,1.75 78.25,0 117.8,0 644.36,0 1298.89,0 1945.11,0 19.64,0 40,-1.47 59.19,0 2.05,0.15 3.37,-0.2 4.11,0 3.13,0.85 1.75,9.77 1.76,12.89 0,40.08 -0.01,85.98 0,126.59 0,14.24 1.9,29.6 0,42.2 -0.27,1.81 0.83,4.47 0,5.27 -1.03,0.99 -10.15,0 -11.73,0 -664.04,0 -1331.74,0 -1994.93,0 -44.29,0 -89.14,2.07 -133.02,0 -54.6,-2.58 -103.36,-8.46 -147.69,-21.1 -128.04,-36.52 -225.72,-117.99 -278.96,-227.97 -18.13,-37.44 -30.84,-82.61 -35.17,-133.62 -4.53,-53.46 -0.53,-107.37 9.97,-155.89 20.04,-92.66 64.1,-161.669 124.24,-213.915 118.54,-102.98 302.39,-144.847 441.88,-234.418 33.55,-21.547 66.53,-46.379 87.91,-80.879 21.21,-34.218 39.17,-75.437 41.61,-127.75 5.23,-112.277 -48.98,-181.378 -115.45,-222.707 -33.61,-20.902 -75.94,-36.062 -126,-42.781 -48.61,-6.531 -108.03,-4.101 -165.27,-4.101 -790.09,0.011 -1583.703,0 -2370.59,0 C 0,132.922 0,67.2813 0,1.64063" style="fill:#ffffff;fill-opacity:1;fill-rule:evenodd;stroke:none" id="path14"></path><path d="m 0,198.559 c 786.887,0 1580.5,0.011 2370.59,0 57.24,0 116.66,-2.43 165.27,4.101 50.06,6.719 92.39,21.879 126,42.781 66.47,41.329 120.68,110.43 115.45,222.707 -2.44,52.313 -20.4,93.532 -41.61,127.75 -21.38,34.5 -54.36,59.332 -87.91,80.879 -139.49,89.571 -323.34,131.438 -441.88,234.418 -60.14,52.246 -104.2,121.255 -124.24,213.915 -10.5,48.52 -14.5,102.43 -9.97,155.89 4.33,51.01 17.04,96.18 35.17,133.62 53.24,109.98 150.92,191.45 278.96,227.97 44.33,12.64 93.09,18.52 147.69,21.1 43.88,2.07 88.73,0 133.02,0 663.19,0 1330.89,0 1994.93,0 1.58,0 10.7,0.99 11.73,0 0.83,-0.8 -0.27,-3.46 0,-5.27 1.9,-12.6 0,-27.96 0,-42.2 -0.01,-40.61 0,-86.51 0,-126.59 -0.01,-3.12 1.37,-12.04 -1.76,-12.89 -0.74,-0.2 -2.06,0.15 -4.11,0 -19.19,-1.47 -39.55,0 -59.19,0 -646.22,0 -1300.75,0 -1945.11,0 -39.55,0 -79.39,1.75 -117.8,0 -77.03,-3.5 -132.11,-23.25 -174.64,-60.95 -42.76,-37.9 -68.73,-89.73 -72.08,-163.51 -3.38,-74.3 25.83,-132.48 62.12,-173.47 35.1,-39.65 92.02,-68.57 143.58,-92.599 54.15,-25.231 108.2,-50.352 161.16,-74.43 107.27,-48.754 209.57,-100.351 271.93,-199.261 30.97,-49.098 51.35,-105.469 61.54,-174.641 C 3008.98,469 3007.07,385.32 2988.29,325.73 2951.43,208.762 2868.58,128.07 2769.11,73.7188 2718.54,46.1016 2659.49,25.6484 2593.29,13.3594 2526.84,1.03906 2451.56,0.46875 2370.59,0.46875 1579.18,0.5 793.805,0.449219 1.17188,0.46875 0.175781,0.25 0.0703125,0.929688 0,1.64063 0,67.2813 0,132.922 0,198.559" style="fill:#f47216;fill-opacity:1;fill-rule:evenodd;stroke:none" id="path16"></path><path d="m 3014.74,23.2383 h 43.06 c 7.4,0 12.58,0.2812 15.57,0.8203 5.27,0.9414 9.68,2.5234 13.21,4.7305 3.55,2.1914 6.45,5.3906 8.73,9.6093 2.28,4.2032 3.42,9.0625 3.42,14.5704 0,6.4414 -1.65,12.0507 -4.95,16.8007 -3.3,4.7618 -7.88,8.1016 -13.74,10.0391 -5.86,1.9102 -14.3,2.8906 -25.3,2.8906 h -40 z m 0,79.8707 h 37.4 c 10.15,0 17.41,0.661 21.82,1.993 5.82,1.738 10.2,4.609 13.15,8.609 2.95,4.019 4.42,9.039 4.42,15.098 0,5.742 -1.37,10.8 -4.12,15.171 -2.75,4.36 -6.69,7.348 -11.79,8.969 -5.12,1.602 -13.89,2.403 -26.31,2.403 h -34.57 z M 2991.86,2.83203 V 175.762 h 64.88 c 13.21,0 23.81,-1.742 31.79,-5.231 7.98,-3.519 14.23,-8.91 18.76,-16.172 4.52,-7.269 6.78,-14.89 6.78,-22.839 0,-7.379 -2.01,-14.348 -6.01,-20.872 -4.02,-6.527 -10.07,-11.7964 -18.18,-15.8082 10.46,-3.0585 18.51,-8.3007 24.13,-15.6796 5.62,-7.3985 8.43,-16.1289 8.43,-26.1914 0,-8.1094 -1.71,-15.6485 -5.13,-22.5977 -3.41,-6.9492 -7.64,-12.3203 -12.68,-16.0898 -5.03,-3.793 -11.34,-6.64067 -18.93,-8.56255 -7.59,-1.92969 -16.89,-2.88672 -27.9,-2.88672 h -65.94" style="fill:#90979b;fill-opacity:1;fill-rule:nonzero;stroke:none" id="path18"></path><path d="m 3217.69,65.6992 c -7.71,-3.1406 -19.27,-5.8203 -34.69,-8.0195 -8.72,-1.25 -14.9,-2.6797 -18.52,-4.2383 -3.62,-1.582 -6.41,-3.8711 -8.38,-6.9023 -1.96,-3.0391 -2.95,-6.3985 -2.95,-10.0899 0,-5.6679 2.15,-10.3789 6.44,-14.1601 4.28,-3.7696 10.56,-5.668 18.81,-5.668 8.18,0 15.46,1.8008 21.82,5.3672 6.37,3.582 11.05,8.4805 14.05,14.6914 2.27,4.8008 3.42,11.8789 3.42,21.2305 z m 1.76,-47.4179 C 3211.59,11.6016 3204.02,6.87891 3196.75,4.12109 3189.47,1.37109 3181.66,0 3173.33,0 c -13.76,0 -24.35,3.35938 -31.74,10.0781 -7.39,6.7227 -11.08,15.3125 -11.08,25.7813 0,6.1289 1.39,11.7422 4.19,16.8203 2.79,5.0508 6.44,9.1406 10.96,12.1992 4.53,3.0703 9.62,5.3906 15.29,6.9609 4.16,1.0899 10.45,2.1602 18.86,3.1797 17.15,2.0508 29.77,4.4922 37.88,7.3203 0.07,2.9102 0.11,4.75 0.11,5.5508 0,8.6289 -2,14.7504 -6.01,18.2814 -5.43,4.789 -13.49,7.187 -24.18,7.187 -9.99,0 -17.37,-1.738 -22.12,-5.25 -4.77,-3.5 -8.28,-9.6871 -10.57,-18.5777 l -20.76,2.8281 c 1.89,8.8906 5,16.0626 9.33,21.5316 4.31,5.468 10.57,9.679 18.75,12.629 8.18,2.949 17.65,4.421 28.43,4.421 10.7,0 19.39,-1.25 26.07,-3.769 6.69,-2.524 11.6,-5.692 14.74,-9.492 3.15,-3.828 5.36,-8.641 6.62,-14.461 0.7,-3.6292 1.05,-10.1487 1.05,-19.5901 V 55.332 c 0,-19.7422 0.46,-32.2226 1.36,-37.4609 0.91,-5.2305 2.69,-10.25001 5.37,-15.03907 h -22.18 c -2.21,4.39844 -3.62,9.54687 -4.25,15.44927" style="fill:#90979b;fill-opacity:1;fill-rule:nonzero;stroke:none" id="path20"></path><path d="M 3258.3,2.83203 V 128.109 h 19.11 v -18.988 c 4.88,8.891 9.38,14.75 13.51,17.578 4.12,2.832 8.67,4.242 13.62,4.242 7.16,0 14.43,-2.293 21.83,-6.839 l -7.32,-19.704 c -5.19,3.063 -10.38,4.602 -15.57,4.602 -4.64,0 -8.81,-1.398 -12.5,-4.191 -3.7,-2.797 -6.34,-6.6606 -7.91,-11.6293 -2.36,-7.5313 -3.54,-15.8008 -3.54,-24.7578 V 2.83203 h -21.23" style="fill:#90979b;fill-opacity:1;fill-rule:nonzero;stroke:none" id="path22"></path><path d="M 3325.22,2.83203 V 128.109 h 19.12 v -18.988 c 4.87,8.891 9.37,14.75 13.5,17.578 4.12,2.832 8.67,4.242 13.62,4.242 7.16,0 14.44,-2.293 21.83,-6.839 l -7.31,-19.704 c -5.2,3.063 -10.38,4.602 -15.58,4.602 -4.64,0 -8.81,-1.398 -12.5,-4.191 -3.7,-2.797 -6.34,-6.6606 -7.91,-11.6293 -2.35,-7.5313 -3.53,-15.8008 -3.53,-24.7578 V 2.83203 h -21.24" style="fill:#90979b;fill-opacity:1;fill-rule:nonzero;stroke:none" id="path24"></path><path d="M 3392.5,2.83203 V 128.109 h 21.23 V 2.83203 Z m 0,148.51997 v 24.41 h 21.23 v -24.41 h -21.23" style="fill:#90979b;fill-opacity:1;fill-rule:nonzero;stroke:none" id="path26"></path><path d="m 3448.57,77.5 h 69.96 c -0.95,10.5508 -3.63,18.4414 -8.02,23.711 -6.77,8.187 -15.54,12.269 -26.31,12.269 -9.76,0 -17.95,-3.261 -24.6,-9.789 -6.65,-6.5191 -10.32,-15.2496 -11.03,-26.191 z m 69.72,-34.3398 21.94,-2.711 c -3.46,-12.8086 -9.87,-22.75 -19.22,-29.8398 C 3511.64,3.53906 3499.69,0 3485.14,0 c -18.32,0 -32.85,5.64844 -43.59,16.9297 -10.73,11.2695 -16.1,27.1094 -16.1,47.4805 0,21.0781 5.43,37.4298 16.28,49.0698 10.85,11.641 24.93,17.461 42.23,17.461 16.75,0 30.43,-5.711 41.05,-17.113 10.62,-11.406 15.93,-27.4374 15.93,-48.1288 0,-1.25 -0.04,-3.1406 -0.12,-5.6601 h -93.43 c 0.78,-13.7696 4.68,-24.3008 11.68,-31.6172 6.99,-7.3125 15.72,-10.961 26.18,-10.961 7.8,0 14.44,2.0274 19.95,6.1289 5.5,4.0899 9.87,10.6094 13.09,19.5704" style="fill:#90979b;fill-opacity:1;fill-rule:nonzero;stroke:none" id="path28"></path><path d="M 3553.13,2.83203 V 128.109 h 19.12 v -18.988 c 4.87,8.891 9.37,14.75 13.5,17.578 4.12,2.832 8.67,4.242 13.63,4.242 7.15,0 14.43,-2.293 21.82,-6.839 l -7.31,-19.704 c -5.2,3.063 -10.38,4.602 -15.58,4.602 -4.64,0 -8.81,-1.398 -12.5,-4.191 -3.7,-2.797 -6.34,-6.6606 -7.91,-11.6293 -2.35,-7.5313 -3.53,-15.8008 -3.53,-24.7578 V 2.83203 h -21.24" style="fill:#90979b;fill-opacity:1;fill-rule:nonzero;stroke:none" id="path30"></path><path d="m 3636.34,77.5 h 69.95 c -0.95,10.5508 -3.62,18.4414 -8.02,23.711 -6.77,8.187 -15.54,12.269 -26.31,12.269 -9.75,0 -17.95,-3.261 -24.6,-9.789 -6.65,-6.5191 -10.32,-15.2496 -11.02,-26.191 z m 69.71,-34.3398 21.95,-2.711 c -3.47,-12.8086 -9.87,-22.75 -19.23,-29.8398 C 3699.4,3.53906 3687.45,0 3672.9,0 c -18.32,0 -32.85,5.64844 -43.58,16.9297 -10.74,11.2695 -16.11,27.1094 -16.11,47.4805 0,21.0781 5.43,37.4298 16.28,49.0698 10.85,11.641 24.93,17.461 42.24,17.461 16.75,0 30.43,-5.711 41.04,-17.113 10.63,-11.406 15.93,-27.4374 15.93,-48.1288 0,-1.25 -0.04,-3.1406 -0.12,-5.6601 h -93.42 c 0.78,-13.7696 4.67,-24.3008 11.68,-31.6172 6.99,-7.3125 15.72,-10.961 26.18,-10.961 7.79,0 14.43,2.0274 19.94,6.1289 5.51,4.0899 9.87,10.6094 13.09,19.5704" style="fill:#90979b;fill-opacity:1;fill-rule:nonzero;stroke:none" id="path32"></path><path d="M 3746.19,2.83203 V 111.602 h -18.75 v 16.507 h 18.75 v 13.34 c 0,8.391 0.75,14.66 2.25,18.75 2.04,5.5 5.63,9.961 10.79,13.391 5.15,3.422 12.36,5.121 21.65,5.121 5.98,0 12.58,-0.699 19.81,-2.109 l -3.18,-18.532 c -4.4,0.782 -8.57,1.192 -12.51,1.192 -6.45,0 -11.01,-1.391 -13.68,-4.141 -2.68,-2.762 -4.01,-7.891 -4.01,-15.449 v -11.563 h 24.42 v -16.507 h -24.42 V 2.83203 h -21.12" style="fill:#90979b;fill-opacity:1;fill-rule:nonzero;stroke:none" id="path34"></path><path d="M 3794.48,2.83203 V 128.109 h 19.11 v -18.988 c 4.88,8.891 9.38,14.75 13.51,17.578 4.12,2.832 8.67,4.242 13.62,4.242 7.16,0 14.44,-2.293 21.83,-6.839 l -7.32,-19.704 c -5.19,3.063 -10.38,4.602 -15.57,4.602 -4.64,0 -8.81,-1.398 -12.5,-4.191 -3.7,-2.797 -6.34,-6.6606 -7.91,-11.6293 -2.36,-7.5313 -3.54,-15.8008 -3.54,-24.7578 V 2.83203 h -21.23" style="fill:#90979b;fill-opacity:1;fill-rule:nonzero;stroke:none" id="path36"></path><path d="m 3877.69,77.5 h 69.95 c -0.95,10.5508 -3.63,18.4414 -8.02,23.711 -6.77,8.187 -15.54,12.269 -26.31,12.269 -9.76,0 -17.95,-3.261 -24.6,-9.789 -6.65,-6.5191 -10.32,-15.2496 -11.02,-26.191 z m 69.71,-34.3398 21.95,-2.711 c -3.47,-12.8086 -9.88,-22.75 -19.23,-29.8398 C 3940.75,3.53906 3928.8,0 3914.25,0 c -18.32,0 -32.85,5.64844 -43.59,16.9297 -10.73,11.2695 -16.1,27.1094 -16.1,47.4805 0,21.0781 5.43,37.4298 16.28,49.0698 10.85,11.641 24.93,17.461 42.24,17.461 16.74,0 30.43,-5.711 41.04,-17.113 10.63,-11.406 15.93,-27.4374 15.93,-48.1288 0,-1.25 -0.04,-3.1406 -0.12,-5.6601 h -93.43 c 0.79,-13.7696 4.68,-24.3008 11.68,-31.6172 7,-7.3125 15.73,-10.961 26.19,-10.961 7.79,0 14.43,2.0274 19.94,6.1289 5.5,4.0899 9.87,10.6094 13.09,19.5704" style="fill:#90979b;fill-opacity:1;fill-rule:nonzero;stroke:none" id="path38"></path><path d="M 3982.6,2.83203 V 128.109 h 21.23 V 2.83203 Z m 0,148.51997 v 24.41 h 21.23 v -24.41 h -21.23" style="fill:#90979b;fill-opacity:1;fill-rule:nonzero;stroke:none" id="path40"></path><path d="m 4038.67,77.5 h 69.95 c -0.94,10.5508 -3.62,18.4414 -8.01,23.711 -6.77,8.187 -15.54,12.269 -26.31,12.269 -9.76,0 -17.95,-3.261 -24.6,-9.789 -6.65,-6.5191 -10.32,-15.2496 -11.03,-26.191 z m 69.72,-34.3398 21.94,-2.711 c -3.46,-12.8086 -9.87,-22.75 -19.23,-29.8398 C 4101.74,3.53906 4089.79,0 4075.23,0 c -18.32,0 -32.85,5.64844 -43.58,16.9297 -10.73,11.2695 -16.1,27.1094 -16.1,47.4805 0,21.0781 5.43,37.4298 16.28,49.0698 10.85,11.641 24.93,17.461 42.23,17.461 16.75,0 30.43,-5.711 41.05,-17.113 10.62,-11.406 15.93,-27.4374 15.93,-48.1288 0,-1.25 -0.04,-3.1406 -0.12,-5.6601 h -93.43 c 0.78,-13.7696 4.68,-24.3008 11.68,-31.6172 6.99,-7.3125 15.72,-10.961 26.18,-10.961 7.79,0 14.44,2.0274 19.94,6.1289 5.51,4.0899 9.88,10.6094 13.1,19.5704" style="fill:#90979b;fill-opacity:1;fill-rule:nonzero;stroke:none" id="path42"></path><path d="m 4134.96,40.2188 21,3.3203 c 1.18,-8.418 4.46,-14.8907 9.85,-19.3594 5.38,-4.4883 12.92,-6.7188 22.59,-6.7188 9.75,0 16.99,1.9688 21.71,5.961 4.71,3.957 7.08,8.6289 7.08,13.957 0,4.8125 -2.09,8.582 -6.26,11.332 -2.91,1.8985 -10.14,4.3008 -21.7,7.211 -15.58,3.9179 -26.37,7.3164 -32.38,10.1875 -6.02,2.8711 -10.58,6.8398 -13.69,11.9219 -3.11,5.0781 -4.66,10.6796 -4.66,16.8085 0,5.5902 1.28,10.7502 3.83,15.5122 2.56,4.769 6.04,8.707 10.44,11.859 3.3,2.437 7.81,4.508 13.51,6.187 5.7,1.704 11.82,2.543 18.35,2.543 9.82,0 18.46,-1.41 25.89,-4.242 7.43,-2.828 12.92,-6.679 16.45,-11.5 3.55,-4.847 5.98,-11.308 7.32,-19.4177 l -20.76,-2.8321 c -0.94,6.4492 -3.68,11.4808 -8.2,15.1018 -4.53,3.629 -10.92,5.429 -19.17,5.429 -9.75,0 -16.72,-1.601 -20.88,-4.832 -4.17,-3.238 -6.26,-7.007 -6.26,-11.3277 0,-2.75 0.87,-5.2305 2.6,-7.4414 1.73,-2.2773 4.44,-4.1601 8.15,-5.6601 2.11,-0.7774 8.36,-2.5977 18.75,-5.4297 15.02,-4 25.49,-7.2891 31.44,-9.8399 5.94,-2.5586 10.6,-6.2695 13.98,-11.1601 3.37,-4.8594 5.06,-10.9102 5.06,-18.1602 0,-7.0703 -2.06,-13.7305 -6.19,-20 -4.13,-6.25 -10.09,-11.07031 -17.87,-14.48827 C 4207.16,1.69922 4198.35,0 4188.52,0 c -16.28,0 -28.69,3.37891 -37.22,10.1406 -8.54,6.7578 -13.98,16.7891 -16.34,30.0782" style="fill:#90979b;fill-opacity:1;fill-rule:nonzero;stroke:none" id="path44"></path><path d="m 4328.97,23.2383 h 43.07 c 7.39,0 12.58,0.2812 15.57,0.8203 5.27,0.9414 9.68,2.5234 13.21,4.7305 3.55,2.1914 6.45,5.3906 8.73,9.6093 2.28,4.2032 3.42,9.0625 3.42,14.5704 0,6.4414 -1.65,12.0507 -4.95,16.8007 -3.3,4.7618 -7.88,8.1016 -13.74,10.0391 -5.86,1.9102 -14.3,2.8906 -25.31,2.8906 h -40 z m 0,79.8707 h 37.41 c 10.14,0 17.41,0.661 21.82,1.993 5.81,1.738 10.2,4.609 13.15,8.609 2.95,4.019 4.42,9.039 4.42,15.098 0,5.742 -1.38,10.8 -4.12,15.171 -2.75,4.36 -6.69,7.348 -11.8,8.969 -5.11,1.602 -13.88,2.403 -26.31,2.403 h -34.57 z M 4306.09,2.83203 V 175.762 h 64.89 c 13.21,0 23.81,-1.742 31.78,-5.231 7.99,-3.519 14.24,-8.91 18.76,-16.172 4.52,-7.269 6.79,-14.89 6.79,-22.839 0,-7.379 -2.01,-14.348 -6.02,-20.872 -4.01,-6.527 -10.06,-11.7964 -18.17,-15.8082 10.46,-3.0585 18.51,-8.3007 24.13,-15.6796 5.62,-7.3985 8.43,-16.1289 8.43,-26.1914 0,-8.1094 -1.71,-15.6485 -5.13,-22.5977 -3.42,-6.9492 -7.64,-12.3203 -12.68,-16.0898 -5.03,-3.793 -11.34,-6.64067 -18.93,-8.56255 -7.6,-1.92969 -16.89,-2.88672 -27.9,-2.88672 h -65.95" style="fill:#90979b;fill-opacity:1;fill-rule:nonzero;stroke:none" id="path46"></path><path d="m 4531.91,65.6992 c -7.7,-3.1406 -19.26,-5.8203 -34.68,-8.0195 -8.72,-1.25 -14.91,-2.6797 -18.52,-4.2383 -3.62,-1.582 -6.42,-3.8711 -8.38,-6.9023 -1.96,-3.0391 -2.95,-6.3985 -2.95,-10.0899 0,-5.6679 2.15,-10.3789 6.44,-14.1601 4.28,-3.7696 10.56,-5.668 18.81,-5.668 8.18,0 15.46,1.8008 21.82,5.3672 6.37,3.582 11.05,8.4805 14.05,14.6914 2.27,4.8008 3.41,11.8789 3.41,21.2305 z m 1.77,-47.4179 C 4525.82,11.6016 4518.25,6.87891 4510.98,4.12109 4503.7,1.37109 4495.89,0 4487.56,0 c -13.76,0 -24.35,3.35938 -31.74,10.0781 -7.39,6.7227 -11.08,15.3125 -11.08,25.7813 0,6.1289 1.39,11.7422 4.19,16.8203 2.79,5.0508 6.44,9.1406 10.96,12.1992 4.52,3.0703 9.62,5.3906 15.29,6.9609 4.16,1.0899 10.45,2.1602 18.86,3.1797 17.15,2.0508 29.77,4.4922 37.87,7.3203 0.08,2.9102 0.12,4.75 0.12,5.5508 0,8.6289 -2,14.7504 -6.01,18.2814 -5.43,4.789 -13.49,7.187 -24.18,7.187 -9.99,0 -17.37,-1.738 -22.12,-5.25 -4.77,-3.5 -8.28,-9.6871 -10.57,-18.5777 l -20.76,2.8281 c 1.89,8.8906 5,16.0626 9.32,21.5316 4.32,5.468 10.58,9.679 18.75,12.629 8.19,2.949 17.66,4.421 28.44,4.421 10.7,0 19.39,-1.25 26.07,-3.769 6.69,-2.524 11.6,-5.692 14.74,-9.492 3.15,-3.828 5.35,-8.641 6.61,-14.461 0.71,-3.6292 1.06,-10.1487 1.06,-19.5901 V 55.332 c 0,-19.7422 0.46,-32.2226 1.36,-37.4609 0.9,-5.2305 2.69,-10.25001 5.37,-15.03907 h -22.18 c -2.21,4.39844 -3.62,9.54687 -4.25,15.44927" style="fill:#90979b;fill-opacity:1;fill-rule:nonzero;stroke:none" id="path48"></path><path d="m 4586.92,65.3516 c 0,-16.0508 3.39,-28.043 10.15,-35.9727 6.77,-7.9492 14.75,-11.918 23.95,-11.918 9.28,0 17.16,3.7891 23.65,11.3907 6.49,7.5781 9.73,19.1601 9.73,34.7187 0,17.1485 -3.3,29.7305 -9.91,37.7577 -6.6,8.031 -14.74,12.031 -24.41,12.031 -9.45,0 -17.33,-3.847 -23.65,-11.558 -6.34,-7.6994 -9.51,-19.8713 -9.51,-36.4494 z M 4654.05,2.83203 V 18.6289 C 4646.1,6.21094 4634.42,0 4619.01,0 4609.02,0 4599.84,2.75 4591.46,8.26172 4583.1,13.75 4576.6,21.4492 4572,31.3086 c -4.6,9.8828 -6.89,21.2305 -6.89,34.043 0,12.5 2.08,23.8476 6.25,34.0273 4.17,10.1911 10.42,18.0001 18.76,23.4101 8.33,5.43 17.64,8.152 27.95,8.152 7.56,0 14.27,-1.582 20.17,-4.793 5.9,-3.179 10.7,-7.32 14.4,-12.437 v 62.051 h 21.11 V 2.83203 h -19.7" style="fill:#90979b;fill-opacity:1;fill-rule:nonzero;stroke:none" id="path50"></path><path d="m 0.488281,327.18 v 961.76 H 128.793 V 327.18 H 0.488281" style="fill:#90979b;fill-opacity:1;fill-rule:nonzero;stroke:none" id="path52"></path><path d="m 277.809,327.18 v 961.76 H 409.414 L 918.66,533.828 v 755.112 h 123.01 V 327.18 H 910.063 L 400.816,1082.94 V 327.18 H 277.809" style="fill:#90979b;fill-opacity:1;fill-rule:nonzero;stroke:none" id="path54"></path><path d="m 1180.1,327.18 v 961.76 h 131.61 l 509.25,-755.112 v 755.112 h 123 V 327.18 h -131.6 l -509.25,755.76 V 327.18 H 1180.1" style="fill:#90979b;fill-opacity:1;fill-rule:nonzero;stroke:none" id="path56"></path><path d="m 3357.51,722.121 h 293.15 l -90.24,266.348 c -27.53,80.911 -47.98,147.381 -61.35,199.441 -11.01,-61.68 -26.54,-122.91 -46.59,-183.7 z m -249.49,-394.941 332.07,961.76 h 123.28 l 353.9,-961.76 H 3786.91 L 3686.05,618.461 H 3324.48 L 3229.52,327.18 h -121.5" style="fill:#f47216;fill-opacity:1;fill-rule:nonzero;stroke:none" id="path58"></path><path d="m 3995.43,327.18 v 961.76 h 117.38 l 454.17,-755.112 v 755.112 h 109.71 V 327.18 h -117.38 l -454.17,755.76 V 327.18 h -109.71" style="fill:#f47216;fill-opacity:1;fill-rule:nonzero;stroke:none" id="path60"></path></g></g></svg>